HIERARCHY
ROOT Hips
{
	OFFSET -0.001795 -0.223333 0.028219
	CHANNELS 6 Xposition Yposition Zposition Zrotation Yrotation Xrotation 
	JOINT LeftUpLeg
	{
		OFFSET 0.069520 -0.091406 -0.006815
		CHANNELS 3 Zrotation Yrotation Xrotation
		JOINT LeftLeg
		{
			OFFSET 0.034277 -0.375199 -0.004496
			CHANNELS 3 Zrotation Yrotation Xrotation
			JOINT LeftFoot
			{
				OFFSET -0.013596 -0.397961 -0.043693
				CHANNELS 3 Zrotation Yrotation Xrotation
				JOINT LeftToe
				{
					OFFSET 0.026358 -0.055791 0.119288
					CHANNELS 3 Zrotation Yrotation Xrotation
					End Site
					{
						OFFSET 0.000000 0.000000 0.000000
					}
				}
			}
		}
	}
	JOINT RightUpLeg
	{
		OFFSET -0.067670 -0.090522 -0.004320
		CHANNELS 3 Zrotation Yrotation Xrotation
		JOINT RightLeg
		{
			OFFSET -0.038290 -0.382569 -0.008850
			CHANNELS 3 Zrotation Yrotation Xrotation
			JOINT RightFoot
			{
				OFFSET 0.015774 -0.398415 -0.042312
				CHANNELS 3 Zrotation Yrotation Xrotation
				JOINT RightToe
				{
					OFFSET -0.025372 -0.048144 0.123348
					CHANNELS 3 Zrotation Yrotation Xrotation
					End Site
					{
						OFFSET 0.000000 0.000000 0.000000
					}
				}
			}
		}
	}
	JOINT Spine
	{
		OFFSET -0.002533 0.108963 -0.026696
		CHANNELS 3 Zrotation Yrotation Xrotation
		JOINT Spine1
		{
			OFFSET 0.005487 0.135180 0.001092
			CHANNELS 3 Zrotation Yrotation Xrotation
			JOINT Spine2
			{
				OFFSET 0.001457 0.052922 0.025425
				CHANNELS 3 Zrotation Yrotation Xrotation
				JOINT Neck
				{
					OFFSET -0.002778 0.213870 -0.042857
					CHANNELS 3 Zrotation Yrotation Xrotation
					JOINT Head
					{
						OFFSET 0.005152 0.064970 0.051349
						CHANNELS 3 Zrotation Yrotation Xrotation
						End Site
						{
							OFFSET 0.000000 0.000000 0.000000
						}
					}
				}
				JOINT LeftShoulder
				{
					OFFSET 0.078845 0.121749 -0.034090
					CHANNELS 3 Zrotation Yrotation Xrotation
					JOINT LeftArm
					{
						OFFSET 0.090977 0.030469 -0.008868
						CHANNELS 3 Zrotation Yrotation Xrotation
						JOINT LeftForeArm
						{
							OFFSET 0.259612 -0.012772 -0.027456
							CHANNELS 3 Zrotation Yrotation Xrotation
							JOINT LeftHand
							{
								OFFSET 0.249234 0.008986 -0.001171
								CHANNELS 3 Zrotation Yrotation Xrotation
								End Site
								{
									OFFSET 0.000000 0.000000 0.000000
								}
							}
						}
					}
				}
				JOINT RightShoulder
				{
					OFFSET -0.081759 0.118833 -0.038615
					CHANNELS 3 Zrotation Yrotation Xrotation
					JOINT RightArm
					{
						OFFSET -0.096012 0.032551 -0.009143
						CHANNELS 3 Zrotation Yrotation Xrotation
						JOINT RightForeArm
						{
							OFFSET -0.253742 -0.013329 -0.021401
							CHANNELS 3 Zrotation Yrotation Xrotation
							JOINT RightHand
							{
								OFFSET -0.255298 0.007772 -0.005559
								CHANNELS 3 Zrotation Yrotation Xrotation
								End Site
								{
									OFFSET 0.000000 0.000000 0.000000
								}
							}
						}
					}
				}
			}
		}
	}
}
MOTION
Frames: 5
Frame Time: 0.050000
-0.106801 0.974461 0.838368 -2.159974 -16.902880 -1.256551 5.459484 -0.057708 -17.869984 -5.537577 1.039242 5.335517 5.702573 12.684983 31.426390 0.000000 0.000000 0.000000 2.542104 -1.477986 19.476156 0.509661 0.569893 10.553610 4.430099 -3.578578 20.689228 0.000000 0.000000 0.000000 -12.234174 2.631382 22.681547 15.715821 -0.866512 -37.123338 6.901791 21.846728 37.770179 2.737837 -0.031582 -6.099996 0.000000 0.000000 0.000000 -40.733320 8.522918 -16.570909 -23.511003 24.267958 -6.986314 -11.406382 -18.459992 2.422738 0.000000 0.000000 0.000000 29.500801 14.867917 12.978713 33.067534 31.853597 0.620860 40.315341 64.764748 32.146783 0.000000 0.000000 0.000000 
-0.111854 0.974769 0.898055 -1.154088 -15.403234 -1.741840 4.010512 -0.418974 -16.847188 -7.555546 1.634663 8.274782 7.128295 14.570313 29.722712 0.000000 0.000000 0.000000 0.813350 -1.175625 18.864422 1.073702 0.963855 17.005987 4.549954 -3.773363 22.412950 0.000000 0.000000 0.000000 -15.472994 3.230071 21.736547 17.709433 -1.047129 -36.985969 5.565659 20.810630 38.569949 1.951509 0.743093 -6.264289 0.000000 0.000000 0.000000 -42.733251 10.062954 -18.719620 -22.604802 22.288267 -6.326934 -9.771143 -17.823586 2.112094 0.000000 0.000000 0.000000 29.197254 15.761478 13.519553 32.975879 31.332750 0.403264 40.988070 65.011994 32.848359 0.000000 0.000000 0.000000 
-0.114866 0.984160 0.957233 -0.089947 -13.578817 -1.298434 2.434026 -0.727621 -14.910364 -8.714288 1.902118 8.936429 7.904030 15.790070 27.634925 0.000000 0.000000 0.000000 -1.248071 -0.688909 13.300041 3.291316 1.279205 27.840134 4.701915 -5.006959 27.559921 0.000000 0.000000 0.000000 -17.938553 3.711125 21.406240 20.655595 -1.538193 -35.983589 2.580817 20.547026 36.609043 2.714504 -0.053812 -5.547395 0.000000 0.000000 0.000000 -43.554020 9.002749 -18.689766 -22.607416 20.968912 -5.958094 -11.132243 -19.368562 2.508209 0.000000 0.000000 0.000000 30.503475 13.784825 12.859613 34.674052 26.978626 -0.569286 44.405224 65.216751 35.611034 0.000000 0.000000 0.000000 
-0.117289 0.996135 1.013339 0.424851 -12.643973 -0.765809 1.230179 -0.761608 -11.188567 -8.497295 1.671828 7.010339 8.280623 16.417016 25.940169 0.000000 0.000000 0.000000 -3.470674 -0.146752 6.508347 6.090687 0.956716 36.592339 2.397128 -8.035232 28.516142 0.000000 0.000000 0.000000 -17.511313 3.552645 21.437163 22.684577 -1.723842 -36.168737 -2.037296 18.266701 35.207891 0.744877 1.357290 -4.387596 0.000000 0.000000 0.000000 -45.463652 8.528992 -17.956053 -23.676401 18.675718 -6.077696 -13.474821 -22.718199 3.476406 0.000000 0.000000 0.000000 33.207049 12.026242 11.562096 35.681972 21.224733 -2.061417 46.760301 61.342133 34.262864 0.000000 0.000000 0.000000 
-0.119949 1.010010 1.067601 -0.184892 -11.928151 -1.849459 0.668063 -0.391780 -4.793436 -7.239855 1.214575 4.074556 7.436812 15.543875 26.200358 0.000000 0.000000 0.000000 -3.840924 0.130605 0.893532 8.037999 0.255909 39.564795 -1.259931 -12.089616 25.562177 0.000000 0.000000 0.000000 -15.149319 3.133080 23.377350 24.319577 -1.843085 -36.888057 -6.181195 16.395162 35.310404 0.782635 1.340366 -5.901058 0.000000 0.000000 0.000000 -46.455894 7.121870 -16.040293 -25.960836 14.327464 -6.236513 -15.280245 -26.515022 4.571476 0.000000 0.000000 0.000000 35.752114 10.763720 10.507042 35.702347 15.093670 -3.701071 42.512937 56.753667 28.129162 0.000000 0.000000 0.000000 
